_______ Visit us at our Semi Public Bittorrent Community ________
  
http://p2pdl.com  _____________________________  http://p2pdl.com


Song for Marion 2012 BRRip 480p x264 AAC - VYTO


Alternate Title: Unfinished Song
Genre: Comedy | Drama | Music
Plot: Grumpy pensioner Arthur honors his recently deceased wife's passion for
performing by joining the unconventional local choir to which she used to belong,
a process that helps him build bridges with his estranged son, James.    
Director: Paul Andrew Williams
Stars: Terence Stamp, Vanessa Redgrave, Gemma Arterton.
Rated: PG-13 for some sexual references and rude gestures.

Info: 
http://www.imdb.com/title/tt1047011/


Format                         : MPEG-4
File size                      : 301 MiB
Duration                       : 1h 33mn
Overall bit rate mode          : Variable
Overall bit rate               : 450 Kbps
Source                         : 720p.BluRay.x264.DTS-HDWinG

Video
Format                         : AVC
Bit rate                       : 407 Kbps
Width                          : 720 pixels
Height                         : 304 pixels
Display aspect ratio           : 2.35:1
Frame rate mode                : Constant
Frame rate                     : 24.000 fps
Stream size                    : 272 MiB (90%)
Writing library                : x264 core 130 r2273

Audio
Format                         : AAC
Bit rate mode                  : Variable
Bit rate                       : 39.9 Kbps
Channel(s)                     : 2 channels
Channel positions              : Front: L R
Sampling rate                  : 48.0 KHz
Stream size                    : 26.7 MiB (9%)
Language                       : English

Subtitle                       : Yes(English)

 
http://ultraimg.com/images/nGwYT.png 
http://ultraimg.com/images/MsXDO.png 
http://ultraimg.com/images/BQ8XG.png 
http://ultraimg.com/images/eRQnV.png 
http://ultraimg.com/images/SfZnc.png 
http://ultraimg.com/images/jcxe.png 
http://ultraimg.com/images/uPnGm.png 
http://ultraimg.com/images/rXM1.png


----------------------------------------------------------------------------------------------------


Encoded using revolutionary 10bit encoding, which enables us to provide you more crispier 
and sharper images at small sizes, just make sure you follow our instructions without a fault.
Recommend to you to use latest version of VLC player. Install K-Lite Codec Pack or shark007 codecs
in case of any kind of problem in playback (For non-VLC Media Player users). Alternatively, install
Core AVC codecs, the fastest decoder that there is coupled with Community Center Codec Pack and play
on Windows Media Player Classic. Check sample to be sure.
Enjoy!

Encoder Notes:Looking For Early Access To Anything You Can Provide DVDScr, R5, DVDR, BluRay, Direct
Audio, Music Releases and Seedboxes. We require dedicated servers, so as to do more 
and fast releases of movies.
If You Got anything to offer please contact us at "contact@p2pdl.com".

Face book Fan Page:   
http://fbl.me/BC